<svg xmlns="http://www.w3.org/2000/svg" viewBox="0 0 932.16 348.27"><defs><style>.cls-1{font-size:36px;font-family:JuliusSansOne-Regular, Julius Sans One;letter-spacing:0.75em;}.cls-1,.cls-4,.cls-5,.cls-6,.cls-8{fill:#515151;}.cls-2{letter-spacing:0.74em;}.cls-3{letter-spacing:0.74em;}.cls-5,.cls-7{opacity:0.75;}.cls-5{font-size:111px;font-family:BeyondTheMountains, Beyond The Mountains;}.cls-6,.cls-8{stroke:#fff;stroke-miterlimit:10;}.cls-6{stroke-width:0.2px;}.cls-8{stroke-width:2.5px;}</style></defs><g id="Camada_2" data-name="Camada 2"><g id="M2V4"><g id="M2_V4_grupo2" data-name="M2 V4 grupo2"><text class="cls-1" transform="translate(295.89 273.21)">Higieniz<tspan class="cls-2" x="370.83" y="0">a</tspan><tspan class="cls-3" x="418.9" y="0">ç</tspan><tspan x="469.62" y="0">ões</tspan></text><path class="cls-4" d="M379.14,218.29c-7,.88-20.53-11.33-23.86-37a265.2,265.2,0,0,1-1.67-29.53c-2.66,1.56-6.88,4.11-12,7.22-11.55,30.85-27.86,66.81-40.52,65.37-14.31-1.66-16.87-8.66-15.87-17.31,1.78-15.43,23.53-32.53,42.73-44.85,6.88-16.64,12.77-33.07,16-43.06-19.09,7.55-39.74,17.65-41.07,28.75-.45,4.1-7.44-.45-6.66-7,2.33-20.86,46.28-30,57.38-36.4.11-9.55,15.76-6,16.87,2.44,1.11,8.88-1.44,57.49,1.11,77.81C375.7,216.07,386.24,217.4,379.14,218.29Zm-54.39-48.17c-17.31,11.87-35.29,26.74-36.51,37.51,0,0-1.22,9.21,4.77,9.88C301.56,218.51,313.88,195.2,324.75,170.12Zm29-46.4c-2,6.77-5.44,17.2-9.76,29,4-2.22,7.21-4,9.65-5.22C353.5,139,353.61,130.71,353.72,123.72Z"/><path class="cls-4" d="M388,179.55c0-12.1,6.11-22.87,9.55-26.19s12.43-4.22,14.87-1.78,7.22,15,3.78,15-4.67-9.76-6.66-9.76c-7.44,0-10.66,44.39-.45,44.39,12.21,0,16.1-20.75,17.32-22.86s4.55-2.44,3.33,0-7.55,31.19-23.53,31.19C395.13,209.52,388,194.64,388,179.55Z"/><path class="cls-4" d="M498.13,134.82c-9,2.77-28.64,5.88-46.73,7.32-2.77,15.65-5.88,34.08-5.88,45,0,29.52,9.66,32,3,32s-16.65-13-16.65-37.18c0-11.32,2.11-25.86,4.33-39a101.16,101.16,0,0,1-13.55-.55c-11-1.34-18.86-6.66-24.41-10.44-2.33-1.55-1.11-3,.44-2.66,11,2.22,25,3.22,39.29,3.66l.67-3.33c1.66-8.77,3-15.43,3-17.87,0-10.65,13.55-3.77,13.55,4.55,0,2.22-.67,6.77-1.56,13L453,133c19.09-.11,36.73-.88,45.39-.88C501.57,132.27,500.9,133.93,498.13,134.82Z"/><path class="cls-4" d="M502.35,208.74c-7.1,0-15.21-4.88-15.21-17.43,0-1.66,0-3.44.12-5.43l-8.44,21.2a8.88,8.88,0,0,1,.89,3.1c0,3-16.65.56-16.65-19.09,0-12.1,2.77-31.3,2.77-35.18,0-2.67-3.1-6,1.78-6,5.88,0,13,3.33,13,7.33s-4.22,17.31-4.22,33.08a54.75,54.75,0,0,0,1.22,13.2c2.22-5.1,7.32-17.42,10.1-26.3.22-4.11.44-7.66.44-8.88,0-2,.45-4.89,3.11-4.89s13,1,13,6.44c0,3.55-1.78,6.11-1.78,22.42C502.46,205.19,506.68,208.74,502.35,208.74Z"/><path class="cls-4" d="M581.93,170.12c-.55,2.55-11.43,40.73-20.86,44.06a3.65,3.65,0,0,1-1.78.33c-10.43,0-13-21.64-13.76-21.64s-5.11,16.87-13.88,16.87-15.87-5.88-15.87-21.31c0-14.54,8-38.29,24.42-38.29,11.43,0,19.54,0,19.54,16.2,0,1.56-4,2.89-4,.44s-.78-11.54-4.88-11.54c-10.88,0-20.54,19.76-20.54,40.18,0,4.11.45,10.77,3.78,10.77s10.32-23.2,10.32-29c0-2.22,0-6.22,6.66-6.22s9.54,3.11,9.54,5.44v1.78c.34,7.54-.33,28.86,3.33,28.86,2.33,0,14.54-35.08,15.32-37.52S582.49,167.34,581.93,170.12Z"/><path class="cls-4" d="M598,119.61c.34,7-6.44,56.28-5.77,72.37,1.22,24.64,10.43,26.42,4.11,26.64s-17.21-10.1-18.09-30.3,6-66.38,5.66-71.81C583.6,107.52,597.7,112.73,598,119.61Z"/><text class="cls-5" transform="translate(641.29 210.24)">Clean</text><path class="cls-6" d="M102.52,63.26a12.9,12.9,0,0,0,6.21,1.07,13.2,13.2,0,0,0,1.64-1.7c.17-.21.33-.42.49-.64a12.89,12.89,0,0,0,1.23-2.18c0-.11.1-.22.14-.33a12.81,12.81,0,0,0-6.35-7.43,12.78,12.78,0,0,1,3.05,6.59,13.23,13.23,0,0,1,.14,2.18h0a12.93,12.93,0,0,1-4.16.87,12.8,12.8,0,0,1-6.7-1.58A12.91,12.91,0,0,0,102.52,63.26Z"/><path class="cls-6" d="M104.89,61.69a12.93,12.93,0,0,0,4.16-.87h0a13.23,13.23,0,0,0-.14-2.18,12.78,12.78,0,0,0-3.05-6.59q-.31-.16-.63-.3a13,13,0,0,0-3.43-1,12.65,12.65,0,0,1,1.4,4.22,13.23,13.23,0,0,1,.14,2.18h0a12.92,12.92,0,0,1-3.51.83,12.79,12.79,0,0,1-3.27-.12,12.58,12.58,0,0,0,1.61,2.24A12.8,12.8,0,0,0,104.89,61.69Z"/><path class="cls-6" d="M96.58,57.87a12.79,12.79,0,0,0,3.27.12,12.92,12.92,0,0,0,3.51-.83h0a13.23,13.23,0,0,0-.14-2.18,12.65,12.65,0,0,0-1.4-4.22,13,13,0,0,0-3.17,0A13.58,13.58,0,0,1,99,52.25a13.11,13.11,0,0,1,.14,2.17h0c-.39.15-.78.29-1.18.4a13,13,0,0,1-2.48.44A13.12,13.12,0,0,0,96.58,57.87Z"/><path class="cls-6" d="M95.45,55.26a13,13,0,0,0,2.48-.44c.4-.11.79-.25,1.18-.4h0A13.11,13.11,0,0,0,99,52.25a13.58,13.58,0,0,0-.32-1.54A12,12,0,0,0,97,51a12.61,12.61,0,0,0-2.07.7A12.84,12.84,0,0,0,95.45,55.26Z"/><line class="cls-6" x1="94.89" y1="51.71" x2="110.87" y2="61.97"/><g class="cls-7"><path class="cls-8" d="M251.67,139.37a157.94,157.94,0,0,1-10.86,77,156.86,156.86,0,0,1-26.16,12.87q-4.67,1.77-9.46,3.27a160.1,160.1,0,0,1-30.31,6.26c-1.48.15-2.94.29-4.41.4a158.37,158.37,0,0,1-63.21-102.84,158,158,0,0,0,65.91,60.86,159.59,159.59,0,0,0,25.08,9.85l.12-.14A159.1,159.1,0,0,0,231.13,76.54,158,158,0,0,1,251.67,139.37Z"/><path class="cls-8" d="M224.29,161.29a159.13,159.13,0,0,1-25.92,45.62l-.12.14a159.59,159.59,0,0,1-25.08-9.85,158,158,0,0,1-65.91-60.86c-.46-2.82-.84-5.66-1.15-8.54a159,159,0,0,1,1.38-44,158.29,158.29,0,0,0,44.31,32.47,160.09,160.09,0,0,0,25,9.84h0a158.28,158.28,0,0,0,23-38.09,159,159,0,0,0,11-39,157.59,157.59,0,0,1,20.24,27.48A158.61,158.61,0,0,1,224.29,161.29Z"/><path class="cls-8" d="M210.89,49.06a159,159,0,0,1-11,39,158.28,158.28,0,0,1-23,38.09h0a160.09,160.09,0,0,1-25-9.84,158.29,158.29,0,0,1-44.31-32.47,158,158,0,0,1,11.42-37.5,158.08,158.08,0,0,0,16.81,9.61,159.07,159.07,0,0,0,25,9.83l0,0q4.86-6,9.1-12.36A159.43,159.43,0,0,0,184.49,26,159.73,159.73,0,0,1,210.89,49.06Z"/><path class="cls-8" d="M184.49,26A159.43,159.43,0,0,1,169.9,53.39q-4.23,6.38-9.1,12.36l0,0a159.07,159.07,0,0,1-25-9.83,158.08,158.08,0,0,1-16.81-9.61,158.23,158.23,0,0,1,9.89-18.71,160.16,160.16,0,0,1,16-21.66A158.72,158.72,0,0,1,184.49,26Z"/><line class="cls-8" x1="144.83" y1="5.92" x2="204.98" y2="232.57"/></g><path class="cls-8" d="M242.81,215.47l-.37.23a158.9,158.9,0,0,1-172.75-2.51,159.34,159.34,0,0,1-44.95-45.56A157.74,157.74,0,0,1,1.37,107.35,158.1,158.1,0,0,1,62.09,84.66c2.37-.36,4.77-.67,7.18-.93a160.39,160.39,0,0,1,27.31-.6A158.69,158.69,0,0,1,239.93,201.82C241.08,206.29,242.05,210.84,242.81,215.47Z"/><path class="cls-8" d="M193.35,193.44l-.19.11A159.23,159.23,0,0,1,69.69,213.19a159.34,159.34,0,0,1-44.95-45.56A157.74,157.74,0,0,1,1.37,107.35,158.1,158.1,0,0,1,62.09,84.66c2.37-.36,4.77-.67,7.18-.93a160.39,160.39,0,0,1,27.31-.6A157.67,157.67,0,0,1,125,87.6a158.56,158.56,0,0,1,65.43,92.19C191.62,184.25,192.58,188.81,193.35,193.44Z"/><path class="cls-8" d="M142,170.36l-.19.11A157.88,157.88,0,0,1,74.1,194a159.36,159.36,0,0,1-27.31.59A158.19,158.19,0,0,1,1.37,107.35,158.1,158.1,0,0,1,62.09,84.66c2.37-.36,4.77-.67,7.18-.93a160.39,160.39,0,0,1,27.31-.6,158.16,158.16,0,0,1,42.54,73.58C140.27,161.17,141.24,165.72,142,170.36Z"/><path class="cls-8" d="M85.46,144.94l-.19.12a157.86,157.86,0,0,1-60.53,22.57A157.74,157.74,0,0,1,1.37,107.35,158.1,158.1,0,0,1,62.09,84.66a157.77,157.77,0,0,1,20.49,46.63Q84.31,138,85.46,144.94Z"/><polyline class="cls-8" points="242.44 215.71 193.16 193.55 141.81 170.47 85.27 145.06 1.37 107.35"/><path class="cls-6" d="M115.42,71.79a12.68,12.68,0,0,0-.88-6.24,12.17,12.17,0,0,0-2.11-1l-.77-.27a13.31,13.31,0,0,0-2.45-.5l-.36,0A12.87,12.87,0,0,0,103.73,72a12.85,12.85,0,0,1,5.34-4.93,12.19,12.19,0,0,1,2-.79h0a12.85,12.85,0,0,1,2.65,10.56A12.74,12.74,0,0,0,115.42,71.79Z"/><path class="cls-6" d="M113.21,70a13,13,0,0,0-2.1-3.69h0a12.19,12.19,0,0,0-2,.79A12.85,12.85,0,0,0,103.73,72q-.06.34-.09.69a12.87,12.87,0,0,0,.11,3.57,12.64,12.64,0,0,1,3.59-2.63,13.47,13.47,0,0,1,2-.8h0A13,13,0,0,1,111.23,76a12.62,12.62,0,0,1,.89,3.15,13.26,13.26,0,0,0,1.64-2.22A12.9,12.9,0,0,0,113.21,70Z"/><path class="cls-6" d="M112.12,79.1a12.62,12.62,0,0,0-.89-3.15,13,13,0,0,0-1.86-3.09h0a13.47,13.47,0,0,0-2,.8,12.64,12.64,0,0,0-3.59,2.63,12.59,12.59,0,0,0,.92,3,13.23,13.23,0,0,1,1.36-.78,13,13,0,0,1,2-.8h0c.26.32.5.66.73,1A12.78,12.78,0,0,1,110,81,12.7,12.7,0,0,0,112.12,79.1Z"/><path class="cls-6" d="M110,81a12.78,12.78,0,0,0-1.18-2.22c-.23-.34-.47-.68-.73-1h0a13,13,0,0,0-2,.8,13.23,13.23,0,0,0-1.36.78,14.53,14.53,0,0,0,.8,1.51,13.23,13.23,0,0,0,1.3,1.75A12.91,12.91,0,0,0,110,81Z"/><line class="cls-6" x1="106.77" y1="82.59" x2="111.64" y2="64.24"/><path class="cls-6" d="M119.52,62.61a12.85,12.85,0,0,1-4.78,4.11,13.25,13.25,0,0,1-2.28-.61l-.75-.31a13.55,13.55,0,0,1-2.18-1.24l-.29-.21a12.83,12.83,0,0,1,1.65-9.64,12.82,12.82,0,0,0,.76,7.23,13.18,13.18,0,0,0,1,1.94h0a12.9,12.9,0,0,0,4-1.4,12.76,12.76,0,0,0,4.94-4.79A12.71,12.71,0,0,1,119.52,62.61Z"/><path class="cls-6" d="M116.68,62.48a12.9,12.9,0,0,1-4,1.4h0a13.18,13.18,0,0,1-1-1.94,12.82,12.82,0,0,1-.76-7.23c.12-.19.25-.38.39-.58a12.56,12.56,0,0,1,2.43-2.6,13,13,0,0,0,1,4.34,13.67,13.67,0,0,0,1,1.94h0a12.78,12.78,0,0,0,3.44-1.09,12.94,12.94,0,0,0,2.75-1.78,12.73,12.73,0,0,1-.24,2.75A12.76,12.76,0,0,1,116.68,62.48Z"/><path class="cls-6" d="M121.86,54.94a12.94,12.94,0,0,1-2.75,1.78,12.78,12.78,0,0,1-3.44,1.09h0a13.67,13.67,0,0,1-1-1.94,13,13,0,0,1-1-4.34,12.62,12.62,0,0,1,2.7-1.67,12.93,12.93,0,0,0,.51,1.48,13.18,13.18,0,0,0,1,1.94h0c.41-.07.81-.16,1.21-.27a12.44,12.44,0,0,0,2.36-.89A13.46,13.46,0,0,1,121.86,54.94Z"/><path class="cls-6" d="M121.49,52.12a12.44,12.44,0,0,1-2.36.89c-.4.11-.8.2-1.21.27h0a13.18,13.18,0,0,1-1-1.94,12.93,12.93,0,0,1-.51-1.48,12,12,0,0,1,1.6-.61,12.08,12.08,0,0,1,2.13-.46A12.8,12.8,0,0,1,121.49,52.12Z"/><line class="cls-6" x1="120.14" y1="48.79" x2="111.7" y2="65.79"/><path class="cls-6" d="M101.18,97.08a12.79,12.79,0,0,0,6.21,1.08,13.2,13.2,0,0,0,1.64-1.7c.17-.21.33-.42.49-.64a13.72,13.72,0,0,0,1.23-2.19l.14-.32a12.83,12.83,0,0,0-6.36-7.43,12.71,12.71,0,0,1,3.06,6.59,13.23,13.23,0,0,1,.14,2.18h0a13,13,0,0,1-4.16.87,12.8,12.8,0,0,1-6.7-1.58A12.75,12.75,0,0,0,101.18,97.08Z"/><path class="cls-6" d="M103.55,95.52a13,13,0,0,0,4.16-.87h0a13.23,13.23,0,0,0-.14-2.18,12.71,12.71,0,0,0-3.06-6.59c-.2-.11-.41-.21-.62-.3a13.12,13.12,0,0,0-3.43-1,12.65,12.65,0,0,1,1.4,4.22A13.23,13.23,0,0,1,102,91h0a12.85,12.85,0,0,1-6.79.71,13.16,13.16,0,0,0,1.62,2.24A12.8,12.8,0,0,0,103.55,95.52Z"/><path class="cls-6" d="M95.23,91.7A12.85,12.85,0,0,0,102,91h0a13.23,13.23,0,0,0-.14-2.18,12.65,12.65,0,0,0-1.4-4.22,13,13,0,0,0-3.18,0,13.93,13.93,0,0,1,.33,1.53,13.23,13.23,0,0,1,.13,2.18h0c-.38.15-.78.28-1.17.4a13.16,13.16,0,0,1-2.48.44A13.08,13.08,0,0,0,95.23,91.7Z"/><path class="cls-6" d="M94.11,89.09a13.16,13.16,0,0,0,2.48-.44c.39-.12.79-.25,1.17-.4h0a13.23,13.23,0,0,0-.13-2.18,13.93,13.93,0,0,0-.33-1.53,11.82,11.82,0,0,0-1.68.3,12.61,12.61,0,0,0-2.07.7A12.9,12.9,0,0,0,94.11,89.09Z"/><line class="cls-6" x1="93.55" y1="85.54" x2="109.53" y2="95.8"/><path class="cls-6" d="M118.13,36.55a12.91,12.91,0,0,0-.88-6.24,12.63,12.63,0,0,0-2.12-1c-.25-.1-.51-.19-.77-.27a13,13,0,0,0-2.45-.5l-.36,0a12.87,12.87,0,0,0-5.12,8.33,12.84,12.84,0,0,1,5.34-4.93,12.19,12.19,0,0,1,2-.79h0a12.85,12.85,0,0,1,2.65,10.56A12.91,12.91,0,0,0,118.13,36.55Z"/><path class="cls-6" d="M115.91,34.77a12.77,12.77,0,0,0-2.1-3.69h0a12.19,12.19,0,0,0-2,.79,12.84,12.84,0,0,0-5.34,4.93c0,.23-.07.46-.09.69a12.87,12.87,0,0,0,.11,3.57A12.78,12.78,0,0,1,110,38.42a13.17,13.17,0,0,1,2-.8h0a12.77,12.77,0,0,1,1.86,3.08,13.28,13.28,0,0,1,.9,3.16,12.68,12.68,0,0,0,1.63-2.22A12.81,12.81,0,0,0,115.91,34.77Z"/><path class="cls-6" d="M114.83,43.86a13.28,13.28,0,0,0-.9-3.16,12.77,12.77,0,0,0-1.86-3.08h0a13.17,13.17,0,0,0-2,.8,12.78,12.78,0,0,0-3.59,2.63,12.53,12.53,0,0,0,.93,3,12.89,12.89,0,0,1,1.36-.77,12.23,12.23,0,0,1,2-.8h0c.26.32.51.66.74,1a13.1,13.1,0,0,1,1.18,2.22A13.11,13.11,0,0,0,114.83,43.86Z"/><path class="cls-6" d="M112.69,45.73a13.1,13.1,0,0,0-1.18-2.22c-.23-.34-.48-.68-.74-1h0a12.23,12.23,0,0,0-2,.8,12.89,12.89,0,0,0-1.36.77,12.22,12.22,0,0,0,.8,1.52,11.67,11.67,0,0,0,1.3,1.75A13.26,13.26,0,0,0,112.69,45.73Z"/><line class="cls-6" x1="109.48" y1="47.35" x2="114.35" y2="29"/><path class="cls-6" d="M77.5,23.4a12.77,12.77,0,0,1-4.78,4.11,12.43,12.43,0,0,1-2.28-.62q-.37-.13-.75-.3a13.55,13.55,0,0,1-2.18-1.24l-.29-.21a12.88,12.88,0,0,1,1.65-9.64,12.83,12.83,0,0,0,.76,7.23,13.18,13.18,0,0,0,1,1.94h0a13,13,0,0,0,9-6.19A12.88,12.88,0,0,1,77.5,23.4Z"/><path class="cls-6" d="M74.66,23.27a12.84,12.84,0,0,1-4,1.4h0a13.18,13.18,0,0,1-1-1.94,12.83,12.83,0,0,1-.76-7.23c.12-.19.25-.39.39-.58a12.83,12.83,0,0,1,2.43-2.6,13,13,0,0,0,1,4.34,14.22,14.22,0,0,0,1,1.94h0a12.83,12.83,0,0,0,3.43-1.09,12.69,12.69,0,0,0,2.75-1.78,13.38,13.38,0,0,1-.23,2.75A12.86,12.86,0,0,1,74.66,23.27Z"/><path class="cls-6" d="M79.84,15.73a12.69,12.69,0,0,1-2.75,1.78,12.83,12.83,0,0,1-3.43,1.09h0a14.22,14.22,0,0,1-1-1.94,13,13,0,0,1-1-4.34,12.47,12.47,0,0,1,2.7-1.67,12.93,12.93,0,0,0,.51,1.48,12.6,12.6,0,0,0,1,1.93h0c.41-.07.82-.16,1.22-.27a13.06,13.06,0,0,0,2.35-.89A13.37,13.37,0,0,1,79.84,15.73Z"/><path class="cls-6" d="M79.47,12.91a13.06,13.06,0,0,1-2.35.89c-.4.11-.81.2-1.22.27h0a12.6,12.6,0,0,1-1-1.93,12.93,12.93,0,0,1-.51-1.48A12,12,0,0,1,76,10a13,13,0,0,1,2.14-.47A13.2,13.2,0,0,1,79.47,12.91Z"/><line class="cls-6" x1="78.13" y1="9.57" x2="69.68" y2="26.58"/><path class="cls-6" d="M98.37,29.75a12.76,12.76,0,0,0,6.2,1.07,12.56,12.56,0,0,0,1.65-1.69c.16-.21.33-.43.48-.65a12.56,12.56,0,0,0,1.24-2.18l.14-.33a12.83,12.83,0,0,0-6.36-7.43,12.87,12.87,0,0,1,3.06,6.59,13.23,13.23,0,0,1,.13,2.18h0A12.9,12.9,0,0,1,94,26.6,12.67,12.67,0,0,0,98.37,29.75Z"/><path class="cls-6" d="M100.74,28.18a12.77,12.77,0,0,0,4.16-.86h0a13.23,13.23,0,0,0-.13-2.18,12.87,12.87,0,0,0-3.06-6.59l-.63-.3a13,13,0,0,0-3.42-1,12.81,12.81,0,0,1,1.53,6.4h0a12.58,12.58,0,0,1-3.5.83,12.87,12.87,0,0,1-3.28-.12A12.15,12.15,0,0,0,94,26.6,12.77,12.77,0,0,0,100.74,28.18Z"/><path class="cls-6" d="M92.42,24.36a12.87,12.87,0,0,0,3.28.12,12.58,12.58,0,0,0,3.5-.83h0a12.81,12.81,0,0,0-1.53-6.4,13,13,0,0,0-3.18-.05,11.7,11.7,0,0,1,.32,1.54A12.17,12.17,0,0,1,95,20.91h0c-.39.15-.78.28-1.18.39a12.31,12.31,0,0,1-2.47.44A12.3,12.3,0,0,0,92.42,24.36Z"/><path class="cls-6" d="M91.3,21.75a12.31,12.31,0,0,0,2.47-.44c.4-.11.79-.24,1.18-.39h0a12.17,12.17,0,0,0-.14-2.17,11.7,11.7,0,0,0-.32-1.54,13.91,13.91,0,0,0-1.69.3,13.51,13.51,0,0,0-2.06.7A12.84,12.84,0,0,0,91.3,21.75Z"/><line class="cls-6" x1="90.74" y1="18.2" x2="106.71" y2="28.46"/><path class="cls-6" d="M90.86,41.66A12.64,12.64,0,0,0,90,35.43a12.68,12.68,0,0,0-2.12-1l-.76-.26a13.26,13.26,0,0,0-2.46-.51l-.35,0a12.79,12.79,0,0,0-5.12,8.33A12.75,12.75,0,0,1,84.5,37a13.7,13.7,0,0,1,2-.8h0a12.92,12.92,0,0,1,2.09,3.7,12.77,12.77,0,0,1,.56,6.86A12.79,12.79,0,0,0,90.86,41.66Z"/><path class="cls-6" d="M88.64,39.89a12.92,12.92,0,0,0-2.09-3.7h0a13.7,13.7,0,0,0-2,.8,12.75,12.75,0,0,0-5.33,4.93c0,.23-.07.46-.1.69a12.79,12.79,0,0,0,.12,3.56,12.94,12.94,0,0,1,3.58-2.63,14,14,0,0,1,2-.79h0a13.1,13.1,0,0,1,1.86,3.08A12.81,12.81,0,0,1,87.56,49a13.34,13.34,0,0,0,1.64-2.23A12.77,12.77,0,0,0,88.64,39.89Z"/><path class="cls-6" d="M87.56,49a12.81,12.81,0,0,0-.89-3.16,13.1,13.1,0,0,0-1.86-3.08h0a14,14,0,0,0-2,.79,12.94,12.94,0,0,0-3.58,2.63,12.59,12.59,0,0,0,.92,3,12.53,12.53,0,0,1,3.39-1.57h0a11.86,11.86,0,0,1,.74,1,12.43,12.43,0,0,1,1.18,2.22A13.17,13.17,0,0,0,87.56,49Z"/><path class="cls-6" d="M85.42,50.85a12.43,12.43,0,0,0-1.18-2.22,11.86,11.86,0,0,0-.74-1h0a12.53,12.53,0,0,0-3.39,1.57,12.63,12.63,0,0,0,2.1,3.27A12.91,12.91,0,0,0,85.42,50.85Z"/><line class="cls-6" x1="82.21" y1="52.47" x2="87.08" y2="34.12"/><path class="cls-6" d="M119.4,13.94a12.91,12.91,0,0,1-4.78,4.1,12.4,12.4,0,0,1-2.28-.61l-.75-.31a12.19,12.19,0,0,1-2.18-1.24l-.29-.21A12.84,12.84,0,0,1,110.77,6a12.79,12.79,0,0,0,.76,7.22,12.25,12.25,0,0,0,1,1.94h0a12.79,12.79,0,0,0,4-1.39A12.91,12.91,0,0,0,121.5,9,12.83,12.83,0,0,1,119.4,13.94Z"/><path class="cls-6" d="M116.56,13.81a12.79,12.79,0,0,1-4,1.39h0a12.25,12.25,0,0,1-1-1.94A12.79,12.79,0,0,1,110.77,6c.12-.2.25-.39.39-.58a12.87,12.87,0,0,1,2.43-2.61,13,13,0,0,0,1,4.34,13.15,13.15,0,0,0,1,1.94h0A12.78,12.78,0,0,0,119,8a12.69,12.69,0,0,0,2.75-1.78A12.88,12.88,0,0,1,121.5,9,12.91,12.91,0,0,1,116.56,13.81Z"/><path class="cls-6" d="M121.74,6.26A12.69,12.69,0,0,1,119,8a12.78,12.78,0,0,1-3.44,1.09h0a13.15,13.15,0,0,1-1-1.94,13,13,0,0,1-1-4.34,13,13,0,0,1,2.7-1.67,12.93,12.93,0,0,0,.51,1.48,13.18,13.18,0,0,0,1,1.94h0c.41-.07.81-.16,1.21-.26a13.16,13.16,0,0,0,2.36-.89A13.28,13.28,0,0,1,121.74,6.26Z"/><path class="cls-6" d="M121.37,3.45a13.16,13.16,0,0,1-2.36.89c-.4.1-.8.19-1.21.26h0a13.18,13.18,0,0,1-1-1.94,12.93,12.93,0,0,1-.51-1.48,13.49,13.49,0,0,1,1.6-.61A13,13,0,0,1,120,.11,12.73,12.73,0,0,1,121.37,3.45Z"/><line class="cls-6" x1="120.02" y1="0.11" x2="111.58" y2="17.11"/><path class="cls-6" d="M91.62,99.07a12.93,12.93,0,0,0-.88-6.24,14.37,14.37,0,0,0-2.12-1l-.77-.26A12.25,12.25,0,0,0,85.4,91L85,91a12.82,12.82,0,0,0-5.12,8.33,12.78,12.78,0,0,1,5.34-4.93,12.59,12.59,0,0,1,2-.8h0a12.69,12.69,0,0,1,2.1,3.7,12.87,12.87,0,0,1,.56,6.86A12.9,12.9,0,0,0,91.62,99.07Z"/><path class="cls-6" d="M89.4,97.3a12.69,12.69,0,0,0-2.1-3.7h0a12.59,12.59,0,0,0-2,.8,12.78,12.78,0,0,0-5.34,4.93q0,.33-.09.69a12.81,12.81,0,0,0,.11,3.56,13.13,13.13,0,0,1,3.59-2.63,12.19,12.19,0,0,1,2-.79h0a13,13,0,0,1,1.86,3.09,13.34,13.34,0,0,1,.9,3.15A12.87,12.87,0,0,0,90,104.16,12.87,12.87,0,0,0,89.4,97.3Z"/><path class="cls-6" d="M88.32,106.38a13.34,13.34,0,0,0-.9-3.15,13,13,0,0,0-1.86-3.09h0a12.19,12.19,0,0,0-2,.79,13.13,13.13,0,0,0-3.59,2.63,13.07,13.07,0,0,0,.93,3,12.25,12.25,0,0,1,1.36-.78,13.17,13.17,0,0,1,2-.8h0c.26.32.51.66.74,1a13.49,13.49,0,0,1,1.18,2.22A13.11,13.11,0,0,0,88.32,106.38Z"/><path class="cls-6" d="M86.18,108.25A13.49,13.49,0,0,0,85,106c-.23-.34-.48-.68-.74-1h0a13.17,13.17,0,0,0-2,.8,12.25,12.25,0,0,0-1.36.78,12.09,12.09,0,0,0,.8,1.51,13.1,13.1,0,0,0,1.3,1.76A12.94,12.94,0,0,0,86.18,108.25Z"/><line class="cls-6" x1="82.97" y1="109.88" x2="87.84" y2="91.52"/><path class="cls-6" d="M71.86,92.27a12.79,12.79,0,0,0,6.21,1.08,13.2,13.2,0,0,0,1.64-1.7c.17-.21.33-.43.48-.65a12.56,12.56,0,0,0,1.24-2.18l.14-.33a12.81,12.81,0,0,0-6.36-7.42,12.87,12.87,0,0,1,3.06,6.59,13.17,13.17,0,0,1,.13,2.17h0a12.84,12.84,0,0,1-10.86-.71A12.88,12.88,0,0,0,71.86,92.27Z"/><path class="cls-6" d="M74.23,90.71a13,13,0,0,0,4.16-.87h0a13.17,13.17,0,0,0-.13-2.17,12.87,12.87,0,0,0-3.06-6.59c-.2-.11-.41-.21-.63-.31a13,13,0,0,0-3.42-1,13,13,0,0,1,1.54,6.39h0a13.08,13.08,0,0,1-3.51.82,13.35,13.35,0,0,1-3.28-.11,13.57,13.57,0,0,0,1.62,2.24A12.89,12.89,0,0,0,74.23,90.71Z"/><path class="cls-6" d="M65.91,86.89a13.35,13.35,0,0,0,3.28.11,13.08,13.08,0,0,0,3.51-.82h0a13,13,0,0,0-1.54-6.39,12.55,12.55,0,0,0-3.18,0,13,13,0,0,1,.33,1.53,13.23,13.23,0,0,1,.13,2.18h0c-.39.15-.78.28-1.18.39a13.08,13.08,0,0,1-2.47.45A13.34,13.34,0,0,0,65.91,86.89Z"/><path class="cls-6" d="M64.79,84.28a13.08,13.08,0,0,0,2.47-.45c.4-.11.79-.24,1.18-.39h0a13.23,13.23,0,0,0-.13-2.18A13,13,0,0,0,68,79.73,13.4,13.4,0,0,0,66.3,80a13.62,13.62,0,0,0-2.07.7A13,13,0,0,0,64.79,84.28Z"/><line class="cls-6" x1="64.23" y1="80.72" x2="80.2" y2="90.99"/><path class="cls-6" d="M92.89,76.46a12.77,12.77,0,0,1-4.78,4.11A13.29,13.29,0,0,1,85.83,80q-.37-.14-.75-.3a13.55,13.55,0,0,1-2.18-1.24l-.29-.21a12.87,12.87,0,0,1,1.65-9.64A12.83,12.83,0,0,0,85,75.79a13.18,13.18,0,0,0,1,1.94h0A12.87,12.87,0,0,0,95,71.54,12.71,12.71,0,0,1,92.89,76.46Z"/><path class="cls-6" d="M90.05,76.33a12.82,12.82,0,0,1-4,1.39h0a13.18,13.18,0,0,1-1-1.94,12.83,12.83,0,0,1-.76-7.23c.12-.19.25-.39.39-.58a12.83,12.83,0,0,1,2.43-2.6,13.1,13.1,0,0,0,1,4.34,14.22,14.22,0,0,0,1,1.94h0a12.78,12.78,0,0,0,3.44-1.09,13.08,13.08,0,0,0,2.75-1.78A12.79,12.79,0,0,1,95,71.54,12.76,12.76,0,0,1,90.05,76.33Z"/><path class="cls-6" d="M95.23,68.79a13.08,13.08,0,0,1-2.75,1.78A12.78,12.78,0,0,1,89,71.66h0a14.22,14.22,0,0,1-1-1.94,13.1,13.1,0,0,1-1-4.34,12.92,12.92,0,0,1,2.7-1.68,13.08,13.08,0,0,0,.51,1.49,12.6,12.6,0,0,0,1,1.93h0a9.63,9.63,0,0,0,1.21-.26A12.88,12.88,0,0,0,94.86,66,13.37,13.37,0,0,1,95.23,68.79Z"/><path class="cls-6" d="M94.86,66a12.88,12.88,0,0,1-2.36.89,9.63,9.63,0,0,1-1.21.26h0a12.6,12.6,0,0,1-1-1.93,13.08,13.08,0,0,1-.51-1.49,13.49,13.49,0,0,1,1.6-.61,12.94,12.94,0,0,1,2.14-.46A13.2,13.2,0,0,1,94.86,66Z"/><line class="cls-6" x1="93.52" y1="62.63" x2="85.07" y2="79.64"/></g></g></g></svg>