<svg xmlns="http://www.w3.org/2000/svg" xmlns:xlink="http://www.w3.org/1999/xlink" viewBox="0 0 253.84 241.26"><defs><style>.cls-1,.cls-10,.cls-11,.cls-12,.cls-13,.cls-14,.cls-15,.cls-16,.cls-17,.cls-18,.cls-19,.cls-2,.cls-20,.cls-21,.cls-22,.cls-23,.cls-24,.cls-25,.cls-26,.cls-27,.cls-28,.cls-29,.cls-3,.cls-30,.cls-31,.cls-32,.cls-33,.cls-34,.cls-35,.cls-36,.cls-37,.cls-38,.cls-39,.cls-4,.cls-40,.cls-41,.cls-42,.cls-43,.cls-44,.cls-45,.cls-46,.cls-47,.cls-48,.cls-49,.cls-5,.cls-50,.cls-51,.cls-52,.cls-53,.cls-54,.cls-55,.cls-56,.cls-57,.cls-58,.cls-59,.cls-6,.cls-60,.cls-61,.cls-62,.cls-63,.cls-64,.cls-65,.cls-66,.cls-67,.cls-68,.cls-69,.cls-7,.cls-70,.cls-8,.cls-9{stroke:#fff;stroke-miterlimit:10;}.cls-1,.cls-16,.cls-17,.cls-18,.cls-19,.cls-2,.cls-20,.cls-21,.cls-22,.cls-23,.cls-24,.cls-25,.cls-26,.cls-27,.cls-28,.cls-29,.cls-3,.cls-30,.cls-31,.cls-32,.cls-33,.cls-34,.cls-35,.cls-36,.cls-37,.cls-38,.cls-39,.cls-4,.cls-40,.cls-41,.cls-42,.cls-43,.cls-44,.cls-45,.cls-46,.cls-47,.cls-48,.cls-49,.cls-5,.cls-50,.cls-51,.cls-52,.cls-53,.cls-54,.cls-55,.cls-56,.cls-57,.cls-58,.cls-59,.cls-60,.cls-61,.cls-62,.cls-63,.cls-64,.cls-65,.cls-66,.cls-67,.cls-68,.cls-69,.cls-70{stroke-width:0.2px;}.cls-1{fill:url(#Gradiente_sem_nome_56);}.cls-2{fill:url(#Gradiente_sem_nome_51);}.cls-3{fill:url(#Gradiente_sem_nome_47);}.cls-4{fill:url(#Gradiente_sem_nome_48);}.cls-5{fill:url(#Gradiente_sem_nome_54);}.cls-10,.cls-11,.cls-12,.cls-13,.cls-14,.cls-15,.cls-6,.cls-7,.cls-8,.cls-9{stroke-width:2.5px;}.cls-6{fill:url(#Gradiente_sem_nome_56-2);}.cls-7{fill:url(#Gradiente_sem_nome_51-2);}.cls-8{fill:url(#Gradiente_sem_nome_47-2);}.cls-9{fill:url(#Gradiente_sem_nome_48-2);}.cls-10{fill:url(#Gradiente_sem_nome_54-2);}.cls-11{fill:url(#Gradiente_sem_nome_122);}.cls-12{fill:url(#Gradiente_sem_nome_109);}.cls-13{fill:url(#Gradiente_sem_nome_54-3);}.cls-14{fill:url(#Gradiente_sem_nome_54-4);}.cls-15{fill:none;}.cls-16{fill:url(#Gradiente_sem_nome_56-3);}.cls-17{fill:url(#Gradiente_sem_nome_51-3);}.cls-18{fill:url(#Gradiente_sem_nome_47-3);}.cls-19{fill:url(#Gradiente_sem_nome_48-3);}.cls-20{fill:url(#Gradiente_sem_nome_54-5);}.cls-21{fill:url(#Gradiente_sem_nome_56-4);}.cls-22{fill:url(#Gradiente_sem_nome_51-4);}.cls-23{fill:url(#Gradiente_sem_nome_47-4);}.cls-24{fill:url(#Gradiente_sem_nome_48-4);}.cls-25{fill:url(#Gradiente_sem_nome_54-6);}.cls-26{fill:url(#Gradiente_sem_nome_56-5);}.cls-27{fill:url(#Gradiente_sem_nome_51-5);}.cls-28{fill:url(#Gradiente_sem_nome_47-5);}.cls-29{fill:url(#Gradiente_sem_nome_48-5);}.cls-30{fill:url(#Gradiente_sem_nome_54-7);}.cls-31{fill:url(#Gradiente_sem_nome_56-6);}.cls-32{fill:url(#Gradiente_sem_nome_51-6);}.cls-33{fill:url(#Gradiente_sem_nome_47-6);}.cls-34{fill:url(#Gradiente_sem_nome_48-6);}.cls-35{fill:url(#Gradiente_sem_nome_54-8);}.cls-36{fill:url(#Gradiente_sem_nome_56-7);}.cls-37{fill:url(#Gradiente_sem_nome_51-7);}.cls-38{fill:url(#Gradiente_sem_nome_47-7);}.cls-39{fill:url(#Gradiente_sem_nome_48-7);}.cls-40{fill:url(#Gradiente_sem_nome_54-9);}.cls-41{fill:url(#Gradiente_sem_nome_56-8);}.cls-42{fill:url(#Gradiente_sem_nome_51-8);}.cls-43{fill:url(#Gradiente_sem_nome_47-8);}.cls-44{fill:url(#Gradiente_sem_nome_48-8);}.cls-45{fill:url(#Gradiente_sem_nome_54-10);}.cls-46{fill:url(#Gradiente_sem_nome_56-9);}.cls-47{fill:url(#Gradiente_sem_nome_51-9);}.cls-48{fill:url(#Gradiente_sem_nome_47-9);}.cls-49{fill:url(#Gradiente_sem_nome_48-9);}.cls-50{fill:url(#Gradiente_sem_nome_54-11);}.cls-51{fill:url(#Gradiente_sem_nome_56-10);}.cls-52{fill:url(#Gradiente_sem_nome_51-10);}.cls-53{fill:url(#Gradiente_sem_nome_47-10);}.cls-54{fill:url(#Gradiente_sem_nome_48-10);}.cls-55{fill:url(#Gradiente_sem_nome_54-12);}.cls-56{fill:url(#Gradiente_sem_nome_56-11);}.cls-57{fill:url(#Gradiente_sem_nome_51-11);}.cls-58{fill:url(#Gradiente_sem_nome_47-11);}.cls-59{fill:url(#Gradiente_sem_nome_48-11);}.cls-60{fill:url(#Gradiente_sem_nome_54-13);}.cls-61{fill:url(#Gradiente_sem_nome_56-12);}.cls-62{fill:url(#Gradiente_sem_nome_51-12);}.cls-63{fill:url(#Gradiente_sem_nome_47-12);}.cls-64{fill:url(#Gradiente_sem_nome_48-12);}.cls-65{fill:url(#Gradiente_sem_nome_54-14);}.cls-66{fill:url(#Gradiente_sem_nome_56-13);}.cls-67{fill:url(#Gradiente_sem_nome_51-13);}.cls-68{fill:url(#Gradiente_sem_nome_47-13);}.cls-69{fill:url(#Gradiente_sem_nome_48-13);}.cls-70{fill:url(#Gradiente_sem_nome_54-15);}</style><linearGradient id="Gradiente_sem_nome_56" x1="985.77" y1="-116.13" x2="985.77" y2="-128.7" gradientTransform="matrix(-0.41, 0.91, 0.91, 0.41, 618.36, -792.53)" gradientUnits="userSpaceOnUse"><stop offset="0" stop-color="#88c961"/><stop offset="0.01" stop-color="#86c861"/><stop offset="0.16" stop-color="#62be5a"/><stop offset="0.31" stop-color="#47b655"/><stop offset="0.47" stop-color="#33b052"/><stop offset="0.62" stop-color="#27ac50"/><stop offset="0.78" stop-color="#23ab4f"/></linearGradient><linearGradient id="Gradiente_sem_nome_51" x1="985.23" y1="-118.48" x2="985.23" y2="-131.09" gradientTransform="matrix(-0.41, 0.91, 0.91, 0.41, 618.36, -792.53)" gradientUnits="userSpaceOnUse"><stop offset="0" stop-color="#23ab4f"/><stop offset="0.45" stop-color="#25ac4f"/><stop offset="0.61" stop-color="#2cae51"/><stop offset="0.73" stop-color="#37b153"/><stop offset="0.82" stop-color="#48b656"/><stop offset="0.9" stop-color="#5ebd5a"/><stop offset="0.97" stop-color="#79c55e"/><stop offset="1" stop-color="#88c961"/></linearGradient><linearGradient id="Gradiente_sem_nome_47" x1="984.76" y1="-125.18" x2="984.76" y2="-133.18" gradientTransform="matrix(-0.41, 0.91, 0.91, 0.41, 618.36, -792.53)" gradientUnits="userSpaceOnUse"><stop offset="0.22" stop-color="#23ab4f"/><stop offset="0.35" stop-color="#2aad50"/><stop offset="0.53" stop-color="#3cb253"/><stop offset="0.75" stop-color="#5bbc59"/><stop offset="0.98" stop-color="#85c860"/><stop offset="1" stop-color="#88c961"/></linearGradient><linearGradient id="Gradiente_sem_nome_48" x1="984.41" y1="-130.18" x2="984.41" y2="-135.14" gradientTransform="matrix(-0.41, 0.91, 0.91, 0.41, 618.36, -792.53)" gradientUnits="userSpaceOnUse"><stop offset="0" stop-color="#23ab4f"/><stop offset="0.09" stop-color="#31af51"/><stop offset="0.42" stop-color="#60bd5a"/><stop offset="0.67" stop-color="#7dc65f"/><stop offset="0.81" stop-color="#88c961"/></linearGradient><linearGradient id="Gradiente_sem_nome_54" x1="984.12" y1="-125.75" x2="987.01" y2="-125.75" gradientTransform="matrix(-0.41, 0.91, 0.91, 0.41, 618.36, -792.53)" gradientUnits="userSpaceOnUse"><stop offset="0.22" stop-color="#23ab4f"/><stop offset="0.28" stop-color="#31af51"/><stop offset="0.52" stop-color="#60bd5a"/><stop offset="0.71" stop-color="#7dc65f"/><stop offset="0.81" stop-color="#88c961"/></linearGradient><linearGradient id="Gradiente_sem_nome_56-2" x1="2.52" y1="839.82" x2="2.52" y2="684.5" gradientTransform="translate(98.03 -597.62) rotate(-6.12)" xlink:href="#Gradiente_sem_nome_56"/><linearGradient id="Gradiente_sem_nome_51-2" x1="-4.17" y1="810.77" x2="-4.17" y2="655.03" gradientTransform="translate(98.03 -597.62) rotate(-6.12)" xlink:href="#Gradiente_sem_nome_51"/><linearGradient id="Gradiente_sem_nome_47-2" x1="-10.01" y1="728.01" x2="-10.01" y2="629.26" gradientTransform="translate(98.03 -597.62) rotate(-6.12)" xlink:href="#Gradiente_sem_nome_47"/><linearGradient id="Gradiente_sem_nome_48-2" x1="-14.23" y1="666.27" x2="-14.23" y2="605.09" gradientTransform="translate(98.03 -597.62) rotate(-6.12)" xlink:href="#Gradiente_sem_nome_48"/><linearGradient id="Gradiente_sem_nome_54-2" x1="-17.84" y1="720.98" x2="17.79" y2="720.98" gradientTransform="translate(98.03 -597.62) rotate(-6.12)" xlink:href="#Gradiente_sem_nome_54"/><linearGradient id="Gradiente_sem_nome_122" x1="-171.3" y1="757.26" x2="57.23" y2="757.26" gradientTransform="translate(98.03 -597.62) rotate(-6.12)" gradientUnits="userSpaceOnUse"><stop offset="0.22" stop-color="#23ab4f"/><stop offset="0.33" stop-color="#27ac50"/><stop offset="0.45" stop-color="#34b052"/><stop offset="0.57" stop-color="#48b656"/><stop offset="0.7" stop-color="#65bf5b"/><stop offset="0.81" stop-color="#88c961"/></linearGradient><linearGradient id="Gradiente_sem_nome_109" x1="-171.3" y1="743.67" x2="10.4" y2="743.67" gradientTransform="translate(98.03 -597.62) rotate(-6.12)" gradientUnits="userSpaceOnUse"><stop offset="0.22" stop-color="#23ab4f"/><stop offset="0.47" stop-color="#48b656"/><stop offset="0.82" stop-color="#76c45e"/><stop offset="1" stop-color="#88c961"/></linearGradient><linearGradient id="Gradiente_sem_nome_54-3" x1="-171.3" y1="729.46" x2="-38.19" y2="729.46" gradientTransform="translate(98.03 -597.62) rotate(-6.12)" xlink:href="#Gradiente_sem_nome_54"/><linearGradient id="Gradiente_sem_nome_54-4" x1="-171.3" y1="713.8" x2="-91.7" y2="713.8" gradientTransform="translate(98.03 -597.62) rotate(-6.12)" xlink:href="#Gradiente_sem_nome_54"/><linearGradient id="Gradiente_sem_nome_56-3" x1="161.11" y1="-1385.37" x2="161.11" y2="-1397.95" gradientTransform="matrix(0.99, 0.11, 0.11, -0.99, 98.03, -1330.78)" xlink:href="#Gradiente_sem_nome_56"/><linearGradient id="Gradiente_sem_nome_51-3" x1="160.57" y1="-1387.73" x2="160.57" y2="-1400.34" gradientTransform="matrix(0.99, 0.11, 0.11, -0.99, 98.03, -1330.78)" xlink:href="#Gradiente_sem_nome_51"/><linearGradient id="Gradiente_sem_nome_47-3" x1="160.09" y1="-1394.43" x2="160.09" y2="-1402.42" gradientTransform="matrix(0.99, 0.11, 0.11, -0.99, 98.03, -1330.78)" xlink:href="#Gradiente_sem_nome_47"/><linearGradient id="Gradiente_sem_nome_48-3" x1="159.75" y1="-1399.43" x2="159.75" y2="-1404.38" gradientTransform="matrix(0.99, 0.11, 0.11, -0.99, 98.03, -1330.78)" xlink:href="#Gradiente_sem_nome_48"/><linearGradient id="Gradiente_sem_nome_54-5" x1="159.46" y1="-1395" x2="162.35" y2="-1395" gradientTransform="matrix(0.99, 0.11, 0.11, -0.99, 98.03, -1330.78)" xlink:href="#Gradiente_sem_nome_54"/><linearGradient id="Gradiente_sem_nome_56-4" x1="611.28" y1="360.74" x2="611.28" y2="348.17" gradientTransform="matrix(0.82, 0.58, -0.58, 0.82, -181.54, -581.63)" xlink:href="#Gradiente_sem_nome_56"/><linearGradient id="Gradiente_sem_nome_51-4" x1="610.74" y1="358.39" x2="610.74" y2="345.78" gradientTransform="matrix(0.82, 0.58, -0.58, 0.82, -181.54, -581.63)" xlink:href="#Gradiente_sem_nome_51"/><linearGradient id="Gradiente_sem_nome_47-4" x1="610.26" y1="351.69" x2="610.26" y2="343.69" gradientTransform="matrix(0.82, 0.58, -0.58, 0.82, -181.54, -581.63)" xlink:href="#Gradiente_sem_nome_47"/><linearGradient id="Gradiente_sem_nome_48-4" x1="609.92" y1="346.69" x2="609.92" y2="341.74" gradientTransform="matrix(0.82, 0.58, -0.58, 0.82, -181.54, -581.63)" xlink:href="#Gradiente_sem_nome_48"/><linearGradient id="Gradiente_sem_nome_54-6" x1="609.63" y1="351.12" x2="612.52" y2="351.12" gradientTransform="matrix(0.82, 0.58, -0.58, 0.82, -181.54, -581.63)" xlink:href="#Gradiente_sem_nome_54"/><linearGradient id="Gradiente_sem_nome_56-5" x1="1017.23" y1="-103.6" x2="1017.23" y2="-116.18" xlink:href="#Gradiente_sem_nome_56"/><linearGradient id="Gradiente_sem_nome_51-5" x1="1016.68" y1="-105.96" x2="1016.68" y2="-118.57" xlink:href="#Gradiente_sem_nome_51"/><linearGradient id="Gradiente_sem_nome_47-5" x1="1016.21" y1="-112.66" x2="1016.21" y2="-120.65" xlink:href="#Gradiente_sem_nome_47"/><linearGradient id="Gradiente_sem_nome_48-5" x1="1015.87" y1="-117.66" x2="1015.87" y2="-122.61" xlink:href="#Gradiente_sem_nome_48"/><linearGradient id="Gradiente_sem_nome_54-7" x1="1015.58" y1="-113.23" x2="1018.46" y2="-113.23" xlink:href="#Gradiente_sem_nome_54"/><linearGradient id="Gradiente_sem_nome_56-6" x1="160.04" y1="-1350.05" x2="160.04" y2="-1362.62" gradientTransform="matrix(0.99, 0.11, 0.11, -0.99, 98.03, -1330.78)" xlink:href="#Gradiente_sem_nome_56"/><linearGradient id="Gradiente_sem_nome_51-6" x1="159.5" y1="-1352.4" x2="159.5" y2="-1365.01" gradientTransform="matrix(0.99, 0.11, 0.11, -0.99, 98.03, -1330.78)" xlink:href="#Gradiente_sem_nome_51"/><linearGradient id="Gradiente_sem_nome_47-6" x1="159.02" y1="-1359.1" x2="159.02" y2="-1367.1" gradientTransform="matrix(0.99, 0.11, 0.11, -0.99, 98.03, -1330.78)" xlink:href="#Gradiente_sem_nome_47"/><linearGradient id="Gradiente_sem_nome_48-6" x1="158.68" y1="-1364.1" x2="158.68" y2="-1369.05" gradientTransform="matrix(0.99, 0.11, 0.11, -0.99, 98.03, -1330.78)" xlink:href="#Gradiente_sem_nome_48"/><linearGradient id="Gradiente_sem_nome_54-8" x1="158.39" y1="-1359.67" x2="161.27" y2="-1359.67" gradientTransform="matrix(0.99, 0.11, 0.11, -0.99, 98.03, -1330.78)" xlink:href="#Gradiente_sem_nome_54"/><linearGradient id="Gradiente_sem_nome_56-7" x1="554.35" y1="352.88" x2="554.35" y2="340.3" gradientTransform="matrix(0.82, 0.58, -0.58, 0.82, -181.54, -581.63)" xlink:href="#Gradiente_sem_nome_56"/><linearGradient id="Gradiente_sem_nome_51-7" x1="553.81" y1="350.52" x2="553.81" y2="337.91" gradientTransform="matrix(0.82, 0.58, -0.58, 0.82, -181.54, -581.63)" xlink:href="#Gradiente_sem_nome_51"/><linearGradient id="Gradiente_sem_nome_47-7" x1="553.33" y1="343.82" x2="553.33" y2="335.83" gradientTransform="matrix(0.82, 0.58, -0.58, 0.82, -181.54, -581.63)" xlink:href="#Gradiente_sem_nome_47"/><linearGradient id="Gradiente_sem_nome_48-7" x1="552.99" y1="338.82" x2="552.99" y2="333.87" gradientTransform="matrix(0.82, 0.58, -0.58, 0.82, -181.54, -581.63)" xlink:href="#Gradiente_sem_nome_48"/><linearGradient id="Gradiente_sem_nome_54-9" x1="552.7" y1="343.25" x2="555.59" y2="343.25" gradientTransform="matrix(0.82, 0.58, -0.58, 0.82, -181.54, -581.63)" xlink:href="#Gradiente_sem_nome_54"/><linearGradient id="Gradiente_sem_nome_56-8" x1="956.85" y1="-133.54" x2="956.85" y2="-146.12" xlink:href="#Gradiente_sem_nome_56"/><linearGradient id="Gradiente_sem_nome_51-8" x1="956.3" y1="-135.9" x2="956.3" y2="-148.51" xlink:href="#Gradiente_sem_nome_51"/><linearGradient id="Gradiente_sem_nome_47-8" x1="955.83" y1="-142.6" x2="955.83" y2="-150.59" xlink:href="#Gradiente_sem_nome_47"/><linearGradient id="Gradiente_sem_nome_48-8" x1="955.49" y1="-147.6" x2="955.49" y2="-152.55" xlink:href="#Gradiente_sem_nome_48"/><linearGradient id="Gradiente_sem_nome_54-10" x1="955.2" y1="-143.17" x2="958.08" y2="-143.17" xlink:href="#Gradiente_sem_nome_54"/><linearGradient id="Gradiente_sem_nome_56-9" x1="133.47" y1="-1358.04" x2="133.47" y2="-1370.62" gradientTransform="matrix(0.99, 0.11, 0.11, -0.99, 98.03, -1330.78)" xlink:href="#Gradiente_sem_nome_56"/><linearGradient id="Gradiente_sem_nome_51-9" x1="132.93" y1="-1360.39" x2="132.93" y2="-1373" gradientTransform="matrix(0.99, 0.11, 0.11, -0.99, 98.03, -1330.78)" xlink:href="#Gradiente_sem_nome_51"/><linearGradient id="Gradiente_sem_nome_47-9" x1="132.46" y1="-1367.09" x2="132.46" y2="-1375.09" gradientTransform="matrix(0.99, 0.11, 0.11, -0.99, 98.03, -1330.78)" xlink:href="#Gradiente_sem_nome_47"/><linearGradient id="Gradiente_sem_nome_48-9" x1="132.12" y1="-1372.09" x2="132.12" y2="-1377.05" gradientTransform="matrix(0.99, 0.11, 0.11, -0.99, 98.03, -1330.78)" xlink:href="#Gradiente_sem_nome_48"/><linearGradient id="Gradiente_sem_nome_54-11" x1="131.83" y1="-1367.66" x2="134.71" y2="-1367.66" gradientTransform="matrix(0.99, 0.11, 0.11, -0.99, 98.03, -1330.78)" xlink:href="#Gradiente_sem_nome_54"/><linearGradient id="Gradiente_sem_nome_56-10" x1="583.16" y1="321.01" x2="583.16" y2="308.44" gradientTransform="matrix(0.82, 0.58, -0.58, 0.82, -181.54, -581.63)" xlink:href="#Gradiente_sem_nome_56"/><linearGradient id="Gradiente_sem_nome_51-10" x1="582.61" y1="318.66" x2="582.61" y2="306.05" gradientTransform="matrix(0.82, 0.58, -0.58, 0.82, -181.54, -581.63)" xlink:href="#Gradiente_sem_nome_51"/><linearGradient id="Gradiente_sem_nome_47-10" x1="582.14" y1="311.96" x2="582.14" y2="303.96" gradientTransform="matrix(0.82, 0.58, -0.58, 0.82, -181.54, -581.63)" xlink:href="#Gradiente_sem_nome_47"/><linearGradient id="Gradiente_sem_nome_48-10" x1="581.8" y1="306.96" x2="581.8" y2="302.01" gradientTransform="matrix(0.82, 0.58, -0.58, 0.82, -181.54, -581.63)" xlink:href="#Gradiente_sem_nome_48"/><linearGradient id="Gradiente_sem_nome_54-12" x1="581.51" y1="311.39" x2="584.39" y2="311.39" gradientTransform="matrix(0.82, 0.58, -0.58, 0.82, -181.54, -581.63)" xlink:href="#Gradiente_sem_nome_54"/><linearGradient id="Gradiente_sem_nome_56-11" x1="140.35" y1="-1415.04" x2="140.35" y2="-1427.62" gradientTransform="matrix(0.99, 0.11, 0.11, -0.99, 98.03, -1330.78)" xlink:href="#Gradiente_sem_nome_56"/><linearGradient id="Gradiente_sem_nome_51-11" x1="139.81" y1="-1417.39" x2="139.81" y2="-1430" gradientTransform="matrix(0.99, 0.11, 0.11, -0.99, 98.03, -1330.78)" xlink:href="#Gradiente_sem_nome_51"/><linearGradient id="Gradiente_sem_nome_47-11" x1="139.34" y1="-1424.09" x2="139.34" y2="-1432.09" gradientTransform="matrix(0.99, 0.11, 0.11, -0.99, 98.03, -1330.78)" xlink:href="#Gradiente_sem_nome_47"/><linearGradient id="Gradiente_sem_nome_48-11" x1="138.99" y1="-1429.09" x2="138.99" y2="-1434.05" gradientTransform="matrix(0.99, 0.11, 0.11, -0.99, 98.03, -1330.78)" xlink:href="#Gradiente_sem_nome_48"/><linearGradient id="Gradiente_sem_nome_54-13" x1="138.7" y1="-1424.66" x2="141.59" y2="-1424.66" gradientTransform="matrix(0.99, 0.11, 0.11, -0.99, 98.03, -1330.78)" xlink:href="#Gradiente_sem_nome_54"/><linearGradient id="Gradiente_sem_nome_56-12" x1="1024.75" y1="-132.35" x2="1024.75" y2="-144.93" xlink:href="#Gradiente_sem_nome_56"/><linearGradient id="Gradiente_sem_nome_51-12" x1="1024.2" y1="-134.7" x2="1024.2" y2="-147.31" xlink:href="#Gradiente_sem_nome_51"/><linearGradient id="Gradiente_sem_nome_47-12" x1="1023.73" y1="-141.4" x2="1023.73" y2="-149.4" xlink:href="#Gradiente_sem_nome_47"/><linearGradient id="Gradiente_sem_nome_48-12" x1="1023.39" y1="-146.4" x2="1023.39" y2="-151.36" xlink:href="#Gradiente_sem_nome_48"/><linearGradient id="Gradiente_sem_nome_54-14" x1="1023.1" y1="-141.97" x2="1025.98" y2="-141.97" xlink:href="#Gradiente_sem_nome_54"/><linearGradient id="Gradiente_sem_nome_56-13" x1="597.48" y1="387.4" x2="597.48" y2="374.82" gradientTransform="matrix(0.82, 0.58, -0.58, 0.82, -181.54, -581.63)" xlink:href="#Gradiente_sem_nome_56"/><linearGradient id="Gradiente_sem_nome_51-13" x1="596.94" y1="385.04" x2="596.94" y2="372.43" gradientTransform="matrix(0.82, 0.58, -0.58, 0.82, -181.54, -581.63)" xlink:href="#Gradiente_sem_nome_51"/><linearGradient id="Gradiente_sem_nome_47-13" x1="596.46" y1="378.34" x2="596.46" y2="370.35" gradientTransform="matrix(0.82, 0.58, -0.58, 0.82, -181.54, -581.63)" xlink:href="#Gradiente_sem_nome_47"/><linearGradient id="Gradiente_sem_nome_48-13" x1="596.12" y1="373.34" x2="596.12" y2="368.39" gradientTransform="matrix(0.82, 0.58, -0.58, 0.82, -181.54, -581.63)" xlink:href="#Gradiente_sem_nome_48"/><linearGradient id="Gradiente_sem_nome_54-15" x1="595.83" y1="377.77" x2="598.72" y2="377.77" gradientTransform="matrix(0.82, 0.58, -0.58, 0.82, -181.54, -581.63)" xlink:href="#Gradiente_sem_nome_54"/></defs><g id="Camada_2" data-name="Camada 2"><g id="M2_V3" data-name="M2 V3"><path class="cls-1" d="M102.52,63.26a12.9,12.9,0,0,0,6.21,1.07,13.2,13.2,0,0,0,1.64-1.7c.17-.21.33-.42.49-.64a12.89,12.89,0,0,0,1.23-2.18c0-.11.1-.22.14-.33a12.81,12.81,0,0,0-6.35-7.43,12.78,12.78,0,0,1,3.05,6.59,13.23,13.23,0,0,1,.14,2.18h0a12.93,12.93,0,0,1-4.16.87,12.8,12.8,0,0,1-6.7-1.58A12.91,12.91,0,0,0,102.52,63.26Z"/><path class="cls-2" d="M104.89,61.69a12.93,12.93,0,0,0,4.16-.87h0a13.23,13.23,0,0,0-.14-2.18,12.78,12.78,0,0,0-3.05-6.59q-.31-.16-.63-.3a13,13,0,0,0-3.43-1,12.65,12.65,0,0,1,1.4,4.22,13.23,13.23,0,0,1,.14,2.18h0a12.92,12.92,0,0,1-3.51.83,12.79,12.79,0,0,1-3.27-.12,12.58,12.58,0,0,0,1.61,2.24A12.8,12.8,0,0,0,104.89,61.69Z"/><path class="cls-3" d="M96.58,57.87a12.79,12.79,0,0,0,3.27.12,12.92,12.92,0,0,0,3.51-.83h0a13.23,13.23,0,0,0-.14-2.18,12.65,12.65,0,0,0-1.4-4.22,13,13,0,0,0-3.17,0A13.58,13.58,0,0,1,99,52.25a13.11,13.11,0,0,1,.14,2.17h0c-.39.15-.78.29-1.18.4a13,13,0,0,1-2.48.44A13.12,13.12,0,0,0,96.58,57.87Z"/><path class="cls-4" d="M95.45,55.26a13,13,0,0,0,2.48-.44c.4-.11.79-.25,1.18-.4h0A13.11,13.11,0,0,0,99,52.25a13.58,13.58,0,0,0-.32-1.54A12,12,0,0,0,97,51a12.61,12.61,0,0,0-2.07.7A12.84,12.84,0,0,0,95.45,55.26Z"/><line class="cls-5" x1="94.89" y1="51.71" x2="110.87" y2="61.97"/><path class="cls-6" d="M251.67,139.37a157.94,157.94,0,0,1-10.86,77,156.86,156.86,0,0,1-26.16,12.87q-4.67,1.77-9.46,3.27a160.1,160.1,0,0,1-30.31,6.26c-1.48.15-2.94.29-4.41.4a158.37,158.37,0,0,1-63.21-102.84,158,158,0,0,0,65.91,60.86,159.59,159.59,0,0,0,25.08,9.85l.12-.14A159.1,159.1,0,0,0,231.13,76.54,158,158,0,0,1,251.67,139.37Z"/><path class="cls-7" d="M224.29,161.29a159.13,159.13,0,0,1-25.92,45.62l-.12.14a159.59,159.59,0,0,1-25.08-9.85,158,158,0,0,1-65.91-60.86c-.46-2.82-.84-5.66-1.15-8.54a159,159,0,0,1,1.38-44,158.29,158.29,0,0,0,44.31,32.47,160.09,160.09,0,0,0,25,9.84h0a158.28,158.28,0,0,0,23-38.09,159,159,0,0,0,11-39,157.59,157.59,0,0,1,20.24,27.48A158.61,158.61,0,0,1,224.29,161.29Z"/><path class="cls-8" d="M210.89,49.06a159,159,0,0,1-11,39,158.28,158.28,0,0,1-23,38.09h0a160.09,160.09,0,0,1-25-9.84,158.29,158.29,0,0,1-44.31-32.47,158,158,0,0,1,11.42-37.5,158.08,158.08,0,0,0,16.81,9.61,159.07,159.07,0,0,0,25,9.83l0,0q4.86-6,9.1-12.36A159.43,159.43,0,0,0,184.49,26,159.73,159.73,0,0,1,210.89,49.06Z"/><path class="cls-9" d="M184.49,26A159.43,159.43,0,0,1,169.9,53.39q-4.23,6.38-9.1,12.36l0,0a159.07,159.07,0,0,1-25-9.83,158.08,158.08,0,0,1-16.81-9.61,158.23,158.23,0,0,1,9.89-18.71,160.16,160.16,0,0,1,16-21.66A158.72,158.72,0,0,1,184.49,26Z"/><line class="cls-10" x1="144.83" y1="5.92" x2="204.98" y2="232.57"/><path class="cls-11" d="M242.81,215.47l-.37.23a158.9,158.9,0,0,1-172.75-2.51,159.34,159.34,0,0,1-44.95-45.56A157.74,157.74,0,0,1,1.37,107.35,158.1,158.1,0,0,1,62.09,84.66c2.37-.36,4.77-.67,7.18-.93a160.39,160.39,0,0,1,27.31-.6A158.69,158.69,0,0,1,239.93,201.82C241.08,206.29,242.05,210.84,242.81,215.47Z"/><path class="cls-12" d="M193.35,193.44l-.19.11A159.23,159.23,0,0,1,69.69,213.19a159.34,159.34,0,0,1-44.95-45.56A157.74,157.74,0,0,1,1.37,107.35,158.1,158.1,0,0,1,62.09,84.66c2.37-.36,4.77-.67,7.18-.93a160.39,160.39,0,0,1,27.31-.6A157.67,157.67,0,0,1,125,87.6a158.56,158.56,0,0,1,65.43,92.19C191.62,184.25,192.58,188.81,193.35,193.44Z"/><path class="cls-13" d="M142,170.36l-.19.11A157.88,157.88,0,0,1,74.1,194a159.36,159.36,0,0,1-27.31.59A158.19,158.19,0,0,1,1.37,107.35,158.1,158.1,0,0,1,62.09,84.66c2.37-.36,4.77-.67,7.18-.93a160.39,160.39,0,0,1,27.31-.6,158.16,158.16,0,0,1,42.54,73.58C140.27,161.17,141.24,165.72,142,170.36Z"/><path class="cls-14" d="M85.46,144.94l-.19.12a157.86,157.86,0,0,1-60.53,22.57A157.74,157.74,0,0,1,1.37,107.35,158.1,158.1,0,0,1,62.09,84.66a157.77,157.77,0,0,1,20.49,46.63Q84.31,138,85.46,144.94Z"/><polyline class="cls-15" points="242.44 215.71 193.16 193.55 141.81 170.47 85.27 145.06 1.37 107.35"/><path class="cls-16" d="M115.42,71.79a12.68,12.68,0,0,0-.88-6.24,12.17,12.17,0,0,0-2.11-1l-.77-.27a13.31,13.31,0,0,0-2.45-.5l-.36,0A12.87,12.87,0,0,0,103.73,72a12.85,12.85,0,0,1,5.34-4.93,12.19,12.19,0,0,1,2-.79h0a12.85,12.85,0,0,1,2.65,10.56A12.74,12.74,0,0,0,115.42,71.79Z"/><path class="cls-17" d="M113.21,70a13,13,0,0,0-2.1-3.69h0a12.19,12.19,0,0,0-2,.79A12.85,12.85,0,0,0,103.73,72q-.06.34-.09.69a12.87,12.87,0,0,0,.11,3.57,12.64,12.64,0,0,1,3.59-2.63,13.47,13.47,0,0,1,2-.8h0A13,13,0,0,1,111.23,76a12.62,12.62,0,0,1,.89,3.15,13.26,13.26,0,0,0,1.64-2.22A12.9,12.9,0,0,0,113.21,70Z"/><path class="cls-18" d="M112.12,79.1a12.62,12.62,0,0,0-.89-3.15,13,13,0,0,0-1.86-3.09h0a13.47,13.47,0,0,0-2,.8,12.64,12.64,0,0,0-3.59,2.63,12.59,12.59,0,0,0,.92,3,13.23,13.23,0,0,1,1.36-.78,13,13,0,0,1,2-.8h0c.26.32.5.66.73,1A12.78,12.78,0,0,1,110,81,12.7,12.7,0,0,0,112.12,79.1Z"/><path class="cls-19" d="M110,81a12.78,12.78,0,0,0-1.18-2.22c-.23-.34-.47-.68-.73-1h0a13,13,0,0,0-2,.8,13.23,13.23,0,0,0-1.36.78,14.53,14.53,0,0,0,.8,1.51,13.23,13.23,0,0,0,1.3,1.75A12.91,12.91,0,0,0,110,81Z"/><line class="cls-20" x1="106.77" y1="82.59" x2="111.64" y2="64.24"/><path class="cls-21" d="M119.52,62.61a12.85,12.85,0,0,1-4.78,4.11,13.25,13.25,0,0,1-2.28-.61l-.75-.31a13.55,13.55,0,0,1-2.18-1.24l-.29-.21a12.83,12.83,0,0,1,1.65-9.64,12.82,12.82,0,0,0,.76,7.23,13.18,13.18,0,0,0,1,1.94h0a12.9,12.9,0,0,0,4-1.4,12.76,12.76,0,0,0,4.94-4.79A12.71,12.71,0,0,1,119.52,62.61Z"/><path class="cls-22" d="M116.68,62.48a12.9,12.9,0,0,1-4,1.4h0a13.18,13.18,0,0,1-1-1.94,12.82,12.82,0,0,1-.76-7.23c.12-.19.25-.38.39-.58a12.56,12.56,0,0,1,2.43-2.6,13,13,0,0,0,1,4.34,13.67,13.67,0,0,0,1,1.94h0a12.78,12.78,0,0,0,3.44-1.09,12.94,12.94,0,0,0,2.75-1.78,12.73,12.73,0,0,1-.24,2.75A12.76,12.76,0,0,1,116.68,62.48Z"/><path class="cls-23" d="M121.86,54.94a12.94,12.94,0,0,1-2.75,1.78,12.78,12.78,0,0,1-3.44,1.09h0a13.67,13.67,0,0,1-1-1.94,13,13,0,0,1-1-4.34,12.62,12.62,0,0,1,2.7-1.67,12.93,12.93,0,0,0,.51,1.48,13.18,13.18,0,0,0,1,1.94h0c.41-.07.81-.16,1.21-.27a12.44,12.44,0,0,0,2.36-.89A13.46,13.46,0,0,1,121.86,54.94Z"/><path class="cls-24" d="M121.49,52.12a12.44,12.44,0,0,1-2.36.89c-.4.11-.8.2-1.21.27h0a13.18,13.18,0,0,1-1-1.94,12.93,12.93,0,0,1-.51-1.48,12,12,0,0,1,1.6-.61,12.08,12.08,0,0,1,2.13-.46A12.8,12.8,0,0,1,121.49,52.12Z"/><line class="cls-25" x1="120.14" y1="48.79" x2="111.7" y2="65.79"/><path class="cls-26" d="M101.18,97.08a12.79,12.79,0,0,0,6.21,1.08,13.2,13.2,0,0,0,1.64-1.7c.17-.21.33-.42.49-.64a13.72,13.72,0,0,0,1.23-2.19l.14-.32a12.83,12.83,0,0,0-6.36-7.43,12.71,12.71,0,0,1,3.06,6.59,13.23,13.23,0,0,1,.14,2.18h0a13,13,0,0,1-4.16.87,12.8,12.8,0,0,1-6.7-1.58A12.75,12.75,0,0,0,101.18,97.08Z"/><path class="cls-27" d="M103.55,95.52a13,13,0,0,0,4.16-.87h0a13.23,13.23,0,0,0-.14-2.18,12.71,12.71,0,0,0-3.06-6.59c-.2-.11-.41-.21-.62-.3a13.12,13.12,0,0,0-3.43-1,12.65,12.65,0,0,1,1.4,4.22A13.23,13.23,0,0,1,102,91h0a12.85,12.85,0,0,1-6.79.71,13.16,13.16,0,0,0,1.62,2.24A12.8,12.8,0,0,0,103.55,95.52Z"/><path class="cls-28" d="M95.23,91.7A12.85,12.85,0,0,0,102,91h0a13.23,13.23,0,0,0-.14-2.18,12.65,12.65,0,0,0-1.4-4.22,13,13,0,0,0-3.18,0,13.93,13.93,0,0,1,.33,1.53,13.23,13.23,0,0,1,.13,2.18h0c-.38.15-.78.28-1.17.4a13.16,13.16,0,0,1-2.48.44A13.08,13.08,0,0,0,95.23,91.7Z"/><path class="cls-29" d="M94.11,89.09a13.16,13.16,0,0,0,2.48-.44c.39-.12.79-.25,1.17-.4h0a13.23,13.23,0,0,0-.13-2.18,13.93,13.93,0,0,0-.33-1.53,11.82,11.82,0,0,0-1.68.3,12.61,12.61,0,0,0-2.07.7A12.9,12.9,0,0,0,94.11,89.09Z"/><line class="cls-30" x1="93.55" y1="85.54" x2="109.53" y2="95.8"/><path class="cls-31" d="M118.13,36.55a12.91,12.91,0,0,0-.88-6.24,12.63,12.63,0,0,0-2.12-1c-.25-.1-.51-.19-.77-.27a13,13,0,0,0-2.45-.5l-.36,0a12.87,12.87,0,0,0-5.12,8.33,12.84,12.84,0,0,1,5.34-4.93,12.19,12.19,0,0,1,2-.79h0a12.85,12.85,0,0,1,2.65,10.56A12.91,12.91,0,0,0,118.13,36.55Z"/><path class="cls-32" d="M115.91,34.77a12.77,12.77,0,0,0-2.1-3.69h0a12.19,12.19,0,0,0-2,.79,12.84,12.84,0,0,0-5.34,4.93c0,.23-.07.46-.09.69a12.87,12.87,0,0,0,.11,3.57A12.78,12.78,0,0,1,110,38.42a13.17,13.17,0,0,1,2-.8h0a12.77,12.77,0,0,1,1.86,3.08,13.28,13.28,0,0,1,.9,3.16,12.68,12.68,0,0,0,1.63-2.22A12.81,12.81,0,0,0,115.91,34.77Z"/><path class="cls-33" d="M114.83,43.86a13.28,13.28,0,0,0-.9-3.16,12.77,12.77,0,0,0-1.86-3.08h0a13.17,13.17,0,0,0-2,.8,12.78,12.78,0,0,0-3.59,2.63,12.53,12.53,0,0,0,.93,3,12.89,12.89,0,0,1,1.36-.77,12.23,12.23,0,0,1,2-.8h0c.26.32.51.66.74,1a13.1,13.1,0,0,1,1.18,2.22A13.11,13.11,0,0,0,114.83,43.86Z"/><path class="cls-34" d="M112.69,45.73a13.1,13.1,0,0,0-1.18-2.22c-.23-.34-.48-.68-.74-1h0a12.23,12.23,0,0,0-2,.8,12.89,12.89,0,0,0-1.36.77,12.22,12.22,0,0,0,.8,1.52,11.67,11.67,0,0,0,1.3,1.75A13.26,13.26,0,0,0,112.69,45.73Z"/><line class="cls-35" x1="109.48" y1="47.35" x2="114.35" y2="29"/><path class="cls-36" d="M77.5,23.4a12.77,12.77,0,0,1-4.78,4.11,12.43,12.43,0,0,1-2.28-.62q-.37-.13-.75-.3a13.55,13.55,0,0,1-2.18-1.24l-.29-.21a12.88,12.88,0,0,1,1.65-9.64,12.83,12.83,0,0,0,.76,7.23,13.18,13.18,0,0,0,1,1.94h0a13,13,0,0,0,9-6.19A12.88,12.88,0,0,1,77.5,23.4Z"/><path class="cls-37" d="M74.66,23.27a12.84,12.84,0,0,1-4,1.4h0a13.18,13.18,0,0,1-1-1.94,12.83,12.83,0,0,1-.76-7.23c.12-.19.25-.39.39-.58a12.83,12.83,0,0,1,2.43-2.6,13,13,0,0,0,1,4.34,14.22,14.22,0,0,0,1,1.94h0a12.83,12.83,0,0,0,3.43-1.09,12.69,12.69,0,0,0,2.75-1.78,13.38,13.38,0,0,1-.23,2.75A12.86,12.86,0,0,1,74.66,23.27Z"/><path class="cls-38" d="M79.84,15.73a12.69,12.69,0,0,1-2.75,1.78,12.83,12.83,0,0,1-3.43,1.09h0a14.22,14.22,0,0,1-1-1.94,13,13,0,0,1-1-4.34,12.47,12.47,0,0,1,2.7-1.67,12.93,12.93,0,0,0,.51,1.48,12.6,12.6,0,0,0,1,1.93h0c.41-.07.82-.16,1.22-.27a13.06,13.06,0,0,0,2.35-.89A13.37,13.37,0,0,1,79.84,15.73Z"/><path class="cls-39" d="M79.47,12.91a13.06,13.06,0,0,1-2.35.89c-.4.11-.81.2-1.22.27h0a12.6,12.6,0,0,1-1-1.93,12.93,12.93,0,0,1-.51-1.48A12,12,0,0,1,76,10a13,13,0,0,1,2.14-.47A13.2,13.2,0,0,1,79.47,12.91Z"/><line class="cls-40" x1="78.13" y1="9.57" x2="69.68" y2="26.58"/><path class="cls-41" d="M98.37,29.75a12.76,12.76,0,0,0,6.2,1.07,12.56,12.56,0,0,0,1.65-1.69c.16-.21.33-.43.48-.65a12.56,12.56,0,0,0,1.24-2.18l.14-.33a12.83,12.83,0,0,0-6.36-7.43,12.87,12.87,0,0,1,3.06,6.59,13.23,13.23,0,0,1,.13,2.18h0A12.9,12.9,0,0,1,94,26.6,12.67,12.67,0,0,0,98.37,29.75Z"/><path class="cls-42" d="M100.74,28.18a12.77,12.77,0,0,0,4.16-.86h0a13.23,13.23,0,0,0-.13-2.18,12.87,12.87,0,0,0-3.06-6.59l-.63-.3a13,13,0,0,0-3.42-1,12.81,12.81,0,0,1,1.53,6.4h0a12.58,12.58,0,0,1-3.5.83,12.87,12.87,0,0,1-3.28-.12A12.15,12.15,0,0,0,94,26.6,12.77,12.77,0,0,0,100.74,28.18Z"/><path class="cls-43" d="M92.42,24.36a12.87,12.87,0,0,0,3.28.12,12.58,12.58,0,0,0,3.5-.83h0a12.81,12.81,0,0,0-1.53-6.4,13,13,0,0,0-3.18-.05,11.7,11.7,0,0,1,.32,1.54A12.17,12.17,0,0,1,95,20.91h0c-.39.15-.78.28-1.18.39a12.31,12.31,0,0,1-2.47.44A12.3,12.3,0,0,0,92.42,24.36Z"/><path class="cls-44" d="M91.3,21.75a12.31,12.31,0,0,0,2.47-.44c.4-.11.79-.24,1.18-.39h0a12.17,12.17,0,0,0-.14-2.17,11.7,11.7,0,0,0-.32-1.54,13.91,13.91,0,0,0-1.69.3,13.51,13.51,0,0,0-2.06.7A12.84,12.84,0,0,0,91.3,21.75Z"/><line class="cls-45" x1="90.74" y1="18.2" x2="106.71" y2="28.46"/><path class="cls-46" d="M90.86,41.66A12.64,12.64,0,0,0,90,35.43a12.68,12.68,0,0,0-2.12-1l-.76-.26a13.26,13.26,0,0,0-2.46-.51l-.35,0a12.79,12.79,0,0,0-5.12,8.33A12.75,12.75,0,0,1,84.5,37a13.7,13.7,0,0,1,2-.8h0a12.92,12.92,0,0,1,2.09,3.7,12.77,12.77,0,0,1,.56,6.86A12.79,12.79,0,0,0,90.86,41.66Z"/><path class="cls-47" d="M88.64,39.89a12.92,12.92,0,0,0-2.09-3.7h0a13.7,13.7,0,0,0-2,.8,12.75,12.75,0,0,0-5.33,4.93c0,.23-.07.46-.1.69a12.79,12.79,0,0,0,.12,3.56,12.94,12.94,0,0,1,3.58-2.63,14,14,0,0,1,2-.79h0a13.1,13.1,0,0,1,1.86,3.08A12.81,12.81,0,0,1,87.56,49a13.34,13.34,0,0,0,1.64-2.23A12.77,12.77,0,0,0,88.64,39.89Z"/><path class="cls-48" d="M87.56,49a12.81,12.81,0,0,0-.89-3.16,13.1,13.1,0,0,0-1.86-3.08h0a14,14,0,0,0-2,.79,12.94,12.94,0,0,0-3.58,2.63,12.59,12.59,0,0,0,.92,3,12.53,12.53,0,0,1,3.39-1.57h0a11.86,11.86,0,0,1,.74,1,12.43,12.43,0,0,1,1.18,2.22A13.17,13.17,0,0,0,87.56,49Z"/><path class="cls-49" d="M85.42,50.85a12.43,12.43,0,0,0-1.18-2.22,11.86,11.86,0,0,0-.74-1h0a12.53,12.53,0,0,0-3.39,1.57,12.63,12.63,0,0,0,2.1,3.27A12.91,12.91,0,0,0,85.42,50.85Z"/><line class="cls-50" x1="82.21" y1="52.47" x2="87.08" y2="34.12"/><path class="cls-51" d="M119.4,13.94a12.91,12.91,0,0,1-4.78,4.1,12.4,12.4,0,0,1-2.28-.61l-.75-.31a12.19,12.19,0,0,1-2.18-1.24l-.29-.21A12.84,12.84,0,0,1,110.77,6a12.79,12.79,0,0,0,.76,7.22,12.25,12.25,0,0,0,1,1.94h0a12.79,12.79,0,0,0,4-1.39A12.91,12.91,0,0,0,121.5,9,12.83,12.83,0,0,1,119.4,13.94Z"/><path class="cls-52" d="M116.56,13.81a12.79,12.79,0,0,1-4,1.39h0a12.25,12.25,0,0,1-1-1.94A12.79,12.79,0,0,1,110.77,6c.12-.2.25-.39.39-.58a12.87,12.87,0,0,1,2.43-2.61,13,13,0,0,0,1,4.34,13.15,13.15,0,0,0,1,1.94h0A12.78,12.78,0,0,0,119,8a12.69,12.69,0,0,0,2.75-1.78A12.88,12.88,0,0,1,121.5,9,12.91,12.91,0,0,1,116.56,13.81Z"/><path class="cls-53" d="M121.74,6.26A12.69,12.69,0,0,1,119,8a12.78,12.78,0,0,1-3.44,1.09h0a13.15,13.15,0,0,1-1-1.94,13,13,0,0,1-1-4.34,13,13,0,0,1,2.7-1.67,12.93,12.93,0,0,0,.51,1.48,13.18,13.18,0,0,0,1,1.94h0c.41-.07.81-.16,1.21-.26a13.16,13.16,0,0,0,2.36-.89A13.28,13.28,0,0,1,121.74,6.26Z"/><path class="cls-54" d="M121.37,3.45a13.16,13.16,0,0,1-2.36.89c-.4.1-.8.19-1.21.26h0a13.18,13.18,0,0,1-1-1.94,12.93,12.93,0,0,1-.51-1.48,13.49,13.49,0,0,1,1.6-.61A13,13,0,0,1,120,.11,12.73,12.73,0,0,1,121.37,3.45Z"/><line class="cls-55" x1="120.02" y1="0.11" x2="111.58" y2="17.11"/><path class="cls-56" d="M91.62,99.07a12.93,12.93,0,0,0-.88-6.24,14.37,14.37,0,0,0-2.12-1l-.77-.26A12.25,12.25,0,0,0,85.4,91L85,91a12.82,12.82,0,0,0-5.12,8.33,12.78,12.78,0,0,1,5.34-4.93,12.59,12.59,0,0,1,2-.8h0a12.69,12.69,0,0,1,2.1,3.7,12.87,12.87,0,0,1,.56,6.86A12.9,12.9,0,0,0,91.62,99.07Z"/><path class="cls-57" d="M89.4,97.3a12.69,12.69,0,0,0-2.1-3.7h0a12.59,12.59,0,0,0-2,.8,12.78,12.78,0,0,0-5.34,4.93q0,.33-.09.69a12.81,12.81,0,0,0,.11,3.56,13.13,13.13,0,0,1,3.59-2.63,12.19,12.19,0,0,1,2-.79h0a13,13,0,0,1,1.86,3.09,13.34,13.34,0,0,1,.9,3.15A12.87,12.87,0,0,0,90,104.16,12.87,12.87,0,0,0,89.4,97.3Z"/><path class="cls-58" d="M88.32,106.38a13.34,13.34,0,0,0-.9-3.15,13,13,0,0,0-1.86-3.09h0a12.19,12.19,0,0,0-2,.79,13.13,13.13,0,0,0-3.59,2.63,13.07,13.07,0,0,0,.93,3,12.25,12.25,0,0,1,1.36-.78,13.17,13.17,0,0,1,2-.8h0c.26.32.51.66.74,1a13.49,13.49,0,0,1,1.18,2.22A13.11,13.11,0,0,0,88.32,106.38Z"/><path class="cls-59" d="M86.18,108.25A13.49,13.49,0,0,0,85,106c-.23-.34-.48-.68-.74-1h0a13.17,13.17,0,0,0-2,.8,12.25,12.25,0,0,0-1.36.78,12.09,12.09,0,0,0,.8,1.51,13.1,13.1,0,0,0,1.3,1.76A12.94,12.94,0,0,0,86.18,108.25Z"/><line class="cls-60" x1="82.97" y1="109.88" x2="87.84" y2="91.52"/><path class="cls-61" d="M71.86,92.27a12.79,12.79,0,0,0,6.21,1.08,13.2,13.2,0,0,0,1.64-1.7c.17-.21.33-.43.48-.65a12.56,12.56,0,0,0,1.24-2.18l.14-.33a12.81,12.81,0,0,0-6.36-7.42,12.87,12.87,0,0,1,3.06,6.59,13.17,13.17,0,0,1,.13,2.17h0a12.84,12.84,0,0,1-10.86-.71A12.88,12.88,0,0,0,71.86,92.27Z"/><path class="cls-62" d="M74.23,90.71a13,13,0,0,0,4.16-.87h0a13.17,13.17,0,0,0-.13-2.17,12.87,12.87,0,0,0-3.06-6.59c-.2-.11-.41-.21-.63-.31a13,13,0,0,0-3.42-1,13,13,0,0,1,1.54,6.39h0a13.08,13.08,0,0,1-3.51.82,13.35,13.35,0,0,1-3.28-.11,13.57,13.57,0,0,0,1.62,2.24A12.89,12.89,0,0,0,74.23,90.71Z"/><path class="cls-63" d="M65.91,86.89a13.35,13.35,0,0,0,3.28.11,13.08,13.08,0,0,0,3.51-.82h0a13,13,0,0,0-1.54-6.39,12.55,12.55,0,0,0-3.18,0,13,13,0,0,1,.33,1.53,13.23,13.23,0,0,1,.13,2.18h0c-.39.15-.78.28-1.18.39a13.08,13.08,0,0,1-2.47.45A13.34,13.34,0,0,0,65.91,86.89Z"/><path class="cls-64" d="M64.79,84.28a13.08,13.08,0,0,0,2.47-.45c.4-.11.79-.24,1.18-.39h0a13.23,13.23,0,0,0-.13-2.18A13,13,0,0,0,68,79.73,13.4,13.4,0,0,0,66.3,80a13.62,13.62,0,0,0-2.07.7A13,13,0,0,0,64.79,84.28Z"/><line class="cls-65" x1="64.23" y1="80.72" x2="80.2" y2="90.99"/><path class="cls-66" d="M92.89,76.46a12.77,12.77,0,0,1-4.78,4.11A13.29,13.29,0,0,1,85.83,80q-.37-.14-.75-.3a13.55,13.55,0,0,1-2.18-1.24l-.29-.21a12.87,12.87,0,0,1,1.65-9.64A12.83,12.83,0,0,0,85,75.79a13.18,13.18,0,0,0,1,1.94h0A12.87,12.87,0,0,0,95,71.54,12.71,12.71,0,0,1,92.89,76.46Z"/><path class="cls-67" d="M90.05,76.33a12.82,12.82,0,0,1-4,1.39h0a13.18,13.18,0,0,1-1-1.94,12.83,12.83,0,0,1-.76-7.23c.12-.19.25-.39.39-.58a12.83,12.83,0,0,1,2.43-2.6,13.1,13.1,0,0,0,1,4.34,14.22,14.22,0,0,0,1,1.94h0a12.78,12.78,0,0,0,3.44-1.09,13.08,13.08,0,0,0,2.75-1.78A12.79,12.79,0,0,1,95,71.54,12.76,12.76,0,0,1,90.05,76.33Z"/><path class="cls-68" d="M95.23,68.79a13.08,13.08,0,0,1-2.75,1.78A12.78,12.78,0,0,1,89,71.66h0a14.22,14.22,0,0,1-1-1.94,13.1,13.1,0,0,1-1-4.34,12.92,12.92,0,0,1,2.7-1.68,13.08,13.08,0,0,0,.51,1.49,12.6,12.6,0,0,0,1,1.93h0a9.63,9.63,0,0,0,1.21-.26A12.88,12.88,0,0,0,94.86,66,13.37,13.37,0,0,1,95.23,68.79Z"/><path class="cls-69" d="M94.86,66a12.88,12.88,0,0,1-2.36.89,9.63,9.63,0,0,1-1.21.26h0a12.6,12.6,0,0,1-1-1.93,13.08,13.08,0,0,1-.51-1.49,13.49,13.49,0,0,1,1.6-.61,12.94,12.94,0,0,1,2.14-.46A13.2,13.2,0,0,1,94.86,66Z"/><line class="cls-70" x1="93.52" y1="62.63" x2="85.07" y2="79.64"/></g></g></svg>